<svg version="1.2" xmlns="http://www.w3.org/2000/svg" xmlns:xlink="http://www.w3.org/1999/xlink" overflow="visible" preserveAspectRatio="none" viewBox="0 0 82 82" width="82" height="82"><g transform="translate(0, 0)"><g transform="translate(-0.00001000000000384027, -0.00001000000000384027) rotate(0)"><path d="M80.40778,82.00001h-78.81554c-0.87891,-0.0011 -1.59114,-0.71332 -1.59223,-1.59223v-78.81554c0,-0.87937 0.71287,-1.59223 1.59223,-1.59223h78.81554c0.87937,0 1.59223,0.71287 1.59223,1.59223v78.81554c0,0.87937 -0.71287,1.59223 -1.59223,1.59223zM46.97088,63.95921v2.67575h5.54217c0.82152,0.01065 1.63845,-0.12411 2.41303,-0.39806c0.70628,-0.2586 1.34965,-0.66413 1.88759,-1.1898c0.55404,-0.55031 0.97136,-1.22284 1.21846,-1.96362c0.28498,-0.8775 0.42219,-1.79626 0.40602,-2.71874v-3.74573c-0.0226,-0.97807 0.16641,-1.94947 0.5541,-2.84771c0.33229,-0.74742 0.79868,-1.42765 1.37609,-2.00701c0.50401,-0.50479 1.1011,-0.90709 1.75822,-1.18462c0.52478,-0.23228 1.08916,-0.36199 1.66269,-0.38214v-2.67575c-0.56831,-0.0162 -1.13007,-0.12594 -1.66269,-0.32482c-0.65225,-0.23441 -1.25033,-0.59837 -1.75822,-1.06998c-0.58207,-0.54585 -1.04983,-1.20196 -1.37609,-1.93018c-0.3958,-0.92934 -0.58486,-1.9336 -0.5541,-2.94324v-3.89818c0.00981,-0.86069 -0.13861,-1.71585 -0.43786,-2.52289c-0.27587,-0.73513 -0.69124,-1.41001 -1.22323,-1.98751c-0.52779,-0.56346 -1.16583,-1.01235 -1.87446,-1.31877c-0.75432,-0.32331 -1.5677,-0.48599 -2.38835,-0.47767h-5.54336v2.67575h4.20429c1.59781,0 2.72312,0.38572 3.34369,1.14681c0.62057,0.76109 0.93663,1.90551 0.93663,3.40181v3.70751c-0.0166,0.96098 0.17913,1.91377 0.5732,2.79039c0.34131,0.75366 0.80644,1.44483 1.37609,2.04483c0.4847,0.50761 1.0379,0.94505 1.64358,1.29966c0.42244,0.26438 0.88831,0.45197 1.37609,0.5541v0.22928c-0.47849,0.11399 -0.93197,0.31489 -1.33787,0.59271c-0.61328,0.3896 -1.16689,0.86598 -1.64358,1.4143c-0.56052,0.63906 -1.02941,1.35299 -1.3932,2.12125c-0.4013,0.84784 -0.60401,1.77601 -0.59271,2.71396v3.6693c0,1.54725 -0.33437,2.70441 -0.99515,3.44042c-0.66078,0.73601 -1.77852,1.10859 -3.32578,1.10859zM29.48657,31.04855c-0.82065,-0.00834 -1.63404,0.15433 -2.38835,0.47767c-0.70806,0.30661 -1.34554,0.75549 -1.87286,1.31877c-0.532,0.57749 -0.94737,1.25237 -1.22323,1.98751c-0.29925,0.80705 -0.44767,1.66221 -0.43786,2.52289v3.89898c0.03077,1.00964 -0.1583,2.01391 -0.5541,2.94324c-0.32626,0.72823 -0.79402,1.38433 -1.37609,1.93018c-0.50789,0.47162 -1.10597,0.83559 -1.75822,1.06998c-0.53276,0.19888 -1.09465,0.30862 -1.66309,0.32482v2.67575c0.57367,0.02009 1.13819,0.14981 1.66309,0.38214c0.65713,0.27752 1.25422,0.67982 1.75822,1.18462c0.57741,0.57936 1.0438,1.25959 1.37609,2.00701c0.38768,0.89824 0.57669,1.86964 0.5541,2.84771v3.74573c-0.01617,0.92248 0.12104,1.84123 0.40602,2.71874c0.2471,0.74078 0.66441,1.41331 1.21846,1.96362c0.53783,0.52562 1.18106,0.93114 1.88719,1.1898c0.77458,0.27395 1.59151,0.40871 2.41303,0.39806h5.54018v-2.67575h-4.16648c-1.54725,0 -2.66699,-0.37298 -3.32538,-1.10859c-0.65839,-0.73561 -0.99515,-1.89317 -0.99515,-3.44042v-3.6693c0.0113,-0.93795 -0.19141,-1.86612 -0.59271,-2.71396c-0.3639,-0.76821 -0.83278,-1.48212 -1.3932,-2.12125c-0.47669,-0.54833 -1.0303,-1.02471 -1.64358,-1.4143c-0.40601,-0.27789 -0.85964,-0.47879 -1.33827,-0.59271v-0.22928c0.48792,-0.10207 0.95393,-0.28966 1.37649,-0.5541c0.60557,-0.35461 1.15864,-0.79205 1.64318,-1.29966c0.56972,-0.59994 1.03486,-1.29112 1.37609,-2.04483c0.39422,-0.87658 0.59009,-1.82938 0.5736,-2.79039v-3.70831c0,-1.4967 0.31526,-2.64112 0.93663,-3.40181c0.62137,-0.76069 1.74668,-1.14681 3.34369,-1.14681h4.20509v-2.67575zM3.98058,3.98058v12.73787h74.03884v-12.73787z" style="stroke-width: 0; stroke-linecap: butt; stroke-linejoin: miter; fill: rgb(138, 149, 159);" vector-effect="non-scaling-stroke"/></g><defs><path id="path-161128060290575" d="M80.40778,82.00001h-78.81554c-0.87891,-0.0011 -1.59114,-0.71332 -1.59223,-1.59223v-78.81554c0,-0.87937 0.71287,-1.59223 1.59223,-1.59223h78.81554c0.87937,0 1.59223,0.71287 1.59223,1.59223v78.81554c0,0.87937 -0.71287,1.59223 -1.59223,1.59223zM46.97088,63.95921v2.67575h5.54217c0.82152,0.01065 1.63845,-0.12411 2.41303,-0.39806c0.70628,-0.2586 1.34965,-0.66413 1.88759,-1.1898c0.55404,-0.55031 0.97136,-1.22284 1.21846,-1.96362c0.28498,-0.8775 0.42219,-1.79626 0.40602,-2.71874v-3.74573c-0.0226,-0.97807 0.16641,-1.94947 0.5541,-2.84771c0.33229,-0.74742 0.79868,-1.42765 1.37609,-2.00701c0.50401,-0.50479 1.1011,-0.90709 1.75822,-1.18462c0.52478,-0.23228 1.08916,-0.36199 1.66269,-0.38214v-2.67575c-0.56831,-0.0162 -1.13007,-0.12594 -1.66269,-0.32482c-0.65225,-0.23441 -1.25033,-0.59837 -1.75822,-1.06998c-0.58207,-0.54585 -1.04983,-1.20196 -1.37609,-1.93018c-0.3958,-0.92934 -0.58486,-1.9336 -0.5541,-2.94324v-3.89818c0.00981,-0.86069 -0.13861,-1.71585 -0.43786,-2.52289c-0.27587,-0.73513 -0.69124,-1.41001 -1.22323,-1.98751c-0.52779,-0.56346 -1.16583,-1.01235 -1.87446,-1.31877c-0.75432,-0.32331 -1.5677,-0.48599 -2.38835,-0.47767h-5.54336v2.67575h4.20429c1.59781,0 2.72312,0.38572 3.34369,1.14681c0.62057,0.76109 0.93663,1.90551 0.93663,3.40181v3.70751c-0.0166,0.96098 0.17913,1.91377 0.5732,2.79039c0.34131,0.75366 0.80644,1.44483 1.37609,2.04483c0.4847,0.50761 1.0379,0.94505 1.64358,1.29966c0.42244,0.26438 0.88831,0.45197 1.37609,0.5541v0.22928c-0.47849,0.11399 -0.93197,0.31489 -1.33787,0.59271c-0.61328,0.3896 -1.16689,0.86598 -1.64358,1.4143c-0.56052,0.63906 -1.02941,1.35299 -1.3932,2.12125c-0.4013,0.84784 -0.60401,1.77601 -0.59271,2.71396v3.6693c0,1.54725 -0.33437,2.70441 -0.99515,3.44042c-0.66078,0.73601 -1.77852,1.10859 -3.32578,1.10859zM29.48657,31.04855c-0.82065,-0.00834 -1.63404,0.15433 -2.38835,0.47767c-0.70806,0.30661 -1.34554,0.75549 -1.87286,1.31877c-0.532,0.57749 -0.94737,1.25237 -1.22323,1.98751c-0.29925,0.80705 -0.44767,1.66221 -0.43786,2.52289v3.89898c0.03077,1.00964 -0.1583,2.01391 -0.5541,2.94324c-0.32626,0.72823 -0.79402,1.38433 -1.37609,1.93018c-0.50789,0.47162 -1.10597,0.83559 -1.75822,1.06998c-0.53276,0.19888 -1.09465,0.30862 -1.66309,0.32482v2.67575c0.57367,0.02009 1.13819,0.14981 1.66309,0.38214c0.65713,0.27752 1.25422,0.67982 1.75822,1.18462c0.57741,0.57936 1.0438,1.25959 1.37609,2.00701c0.38768,0.89824 0.57669,1.86964 0.5541,2.84771v3.74573c-0.01617,0.92248 0.12104,1.84123 0.40602,2.71874c0.2471,0.74078 0.66441,1.41331 1.21846,1.96362c0.53783,0.52562 1.18106,0.93114 1.88719,1.1898c0.77458,0.27395 1.59151,0.40871 2.41303,0.39806h5.54018v-2.67575h-4.16648c-1.54725,0 -2.66699,-0.37298 -3.32538,-1.10859c-0.65839,-0.73561 -0.99515,-1.89317 -0.99515,-3.44042v-3.6693c0.0113,-0.93795 -0.19141,-1.86612 -0.59271,-2.71396c-0.3639,-0.76821 -0.83278,-1.48212 -1.3932,-2.12125c-0.47669,-0.54833 -1.0303,-1.02471 -1.64358,-1.4143c-0.40601,-0.27789 -0.85964,-0.47879 -1.33827,-0.59271v-0.22928c0.48792,-0.10207 0.95393,-0.28966 1.37649,-0.5541c0.60557,-0.35461 1.15864,-0.79205 1.64318,-1.29966c0.56972,-0.59994 1.03486,-1.29112 1.37609,-2.04483c0.39422,-0.87658 0.59009,-1.82938 0.5736,-2.79039v-3.70831c0,-1.4967 0.31526,-2.64112 0.93663,-3.40181c0.62137,-0.76069 1.74668,-1.14681 3.34369,-1.14681h4.20509v-2.67575zM3.98058,3.98058v12.73787h74.03884v-12.73787z" vector-effect="non-scaling-stroke"/></defs></g></svg>